# xmcd
#
# Track frame offsets:
#      150
#      14218
#      27809
#      41828
#      66845
#      79304
#      105887
#      131445
#      150877
# 
# Disc length: 2329 seconds
#
# Revision: 3
# Processed by: cddbd v1.4PL0 Copyright (c) Steve Scherf et al.
#
# Submitted via: FreeRIP 1.21
#
DISCID=68091709
DTITLE=Van Morrison - The Great Van Morrison
DYEAR=1900
DGENRE=blues
TTITLE0=Brown Eyed Girl
TTITLE1=Goodbye Baby (Baby Goodbye)
TTITLE2=Ro Ro Rosey
TTITLE3=The Back Room
TTITLE4=Midnight Special
TTITLE5=He Ain't Give You None
TTITLE6=Who Drove The Red Sports Car
TTITLE7=Joe Harper Saturday Morning
TTITLE8=Madame George
EXTD=
EXTT0=
EXTT1=
EXTT2=
EXTT3=
EXTT4=
EXTT5=
EXTT6=
EXTT7=
EXTT8=
PLAYORDER=
